# xmcd
#
# Track frame offsets:
# 150
# 18312
# 32452
# 42934
# 56560
# 70621
# 83793
# 97951
# 111048
# 123505
# 135884
# 153542
# 167540
# 179417
# 192713
# 211328
#
# Disc length: 3016 seconds
#
# Revision: 0
# Processed by: cddbd v1.4PL0 Copyright (c) Steve Scherf et al.
# Submitted via: Axialis_AX_CDPlayer 2.6
#
DISCID=cd0bc610
DTITLE=Don Williams - The Country Collection
DYEAR=1900
DGENRE=
TTITLE0=I Believe In You
TTITLE1=Listen To The Radio
TTITLE2=(Turn Out The Light And) Love Me Tonight
TTITLE3=I'm Just A County Boy
TTITLE4=Amanda
TTITLE5=Say It Again
TTITLE6=If Hollywood Don't Need You
TTITLE7=Love Me Over Again
TTITLE8=You're My Best Friend
TTITLE9=Some Broken Hearts Never Mend
TTITLE10=Only Love
TTITLE11=Hello Blues And Down The Road I Go (?)
TTITLE12=Don't You Believe
TTITLE13=Miracles
TTITLE14=Fairweather Friends
TTITLE15=I Recall A Gypsy Woman
EXTD=
EXTT0=
EXTT1=
EXTT2=
EXTT3=
EXTT4=
EXTT5=
EXTT6=
EXTT7=
EXTT8=
EXTT9=
EXTT10=
EXTT11=
EXTT12=
EXTT13=
EXTT14=
EXTT15=
PLAYORDER=
